<?xml version="1.0" standalone="no"?>
<!DOCTYPE svg PUBLIC "-//W3C//DTD SVG 20010904//EN"
 "http://www.w3.org/TR/2001/REC-SVG-20010904/DTD/svg10.dtd">
<svg version="1.0" xmlns="http://www.w3.org/2000/svg"
 width="1013.000000pt" height="500.000000pt" viewBox="0 0 1013.000000 500.000000"
 preserveAspectRatio="xMidYMid meet">

<g transform="translate(0.000000,500.000000) scale(0.100000,-0.100000)"
fill="#000000" stroke="none">
<path d="M3919 4643 l-354 -358 35 -6 c19 -3 535 -7 1146 -8 l1111 -2 349 358
349 358 -50 7 c-27 3 -541 7 -1141 7 l-1091 1 -354 -357z"/>
<path d="M6239 4553 l-361 -358 -1181 -5 -1182 -5 0 -1122 c0 -617 4 -1125 8
-1130 14 -13 338 -16 351 -3 8 8 12 273 16 935 3 508 9 927 13 932 5 4 449 10
987 13 l979 5 254 253 c140 138 259 252 264 252 13 0 23 -416 23 -980 0 -525
9 -830 23 -830 6 0 55 44 110 98 l100 99 -9 1098 c-7 849 -12 1099 -21 1102
-7 3 -175 -157 -374 -354z"/>
<path d="M6115 3960 c-113 -110 -218 -208 -232 -217 -25 -17 -91 -18 -964 -21
l-937 -4 -6 -21 c-3 -12 -6 -88 -6 -168 0 -110 3 -150 14 -165 14 -19 37 -19
918 -22 497 -2 919 0 938 3 28 6 77 49 270 240 l235 234 3 145 c4 146 0 196
-18 196 -5 0 -101 -90 -215 -200z"/>
<path d="M6101 3476 l-223 -224 4 -628 c2 -346 7 -635 12 -643 6 -10 32 11
102 80 l94 94 0 465 0 465 130 130 130 130 0 155 c0 149 -5 200 -19 200 -3 0
-107 -101 -230 -224z"/>
<path d="M3994 3246 c-18 -14 -19 -32 -19 -656 0 -624 1 -642 19 -656 15 -11
57 -14 180 -14 89 0 168 5 176 10 13 8 15 92 15 655 0 629 -1 647 -19 661 -28
20 -324 20 -352 0z"/>
<path d="M4730 3251 c-22 -6 -26 -14 -31 -71 -9 -85 -11 -768 -3 -798 l6 -22
192 2 191 3 0 437 c0 240 -4 440 -8 445 -11 10 -313 14 -347 4z"/>
<path d="M5459 3254 c-9 -3 -19 -19 -23 -36 -8 -42 -6 -1237 3 -1268 l7 -25
179 0 180 0 8 49 c10 64 5 1262 -6 1273 -9 9 -321 15 -348 7z"/>
<path d="M6232 3117 l-82 -82 0 -301 c0 -339 7 -484 24 -484 23 0 156 145 166
180 20 70 7 770 -14 770 -6 0 -48 -37 -94 -83z"/>
<path d="M6462 1726 c-59 -19 -105 -57 -126 -104 -24 -53 -15 -101 27 -149 97
-110 289 -94 353 29 22 42 18 110 -8 148 -45 66 -163 102 -246 76z"/>
<path d="M7793 1726 c-116 -38 -163 -128 -114 -224 34 -66 95 -102 174 -102
78 0 108 11 158 59 71 68 78 135 22 202 -51 60 -162 90 -240 65z"/>
<path d="M4380 1575 c-46 -21 -68 -42 -93 -90 -21 -39 -22 -50 -25 -636 -3
-393 0 -615 7 -653 14 -74 40 -110 104 -143 l52 -26 590 6 c623 5 667 9 762
54 73 34 183 143 221 220 70 138 92 323 57 472 -33 138 -129 276 -243 350 -88
56 -131 61 -532 68 l-365 6 -51 -26 c-103 -52 -137 -135 -93 -224 43 -85 38
-84 452 -93 245 -5 373 -12 395 -20 65 -24 121 -163 107 -264 -8 -63 -39 -137
-69 -165 -39 -37 -126 -43 -581 -39 -391 3 -426 4 -442 21 -17 16 -18 56 -23
540 l-5 522 -25 44 c-41 72 -132 106 -200 76z"/>
<path d="M7081 1533 c-46 -45 -50 -52 -56 -113 -4 -36 -5 -346 -3 -690 3 -701
-1 -660 76 -699 97 -49 183 -32 233 47 l29 46 0 664 c0 471 -3 670 -11 685
-17 32 -60 77 -91 93 -15 8 -50 14 -78 14 -46 0 -54 -4 -99 -47z"/>
<path d="M455 1230 c-221 -48 -388 -206 -430 -407 -20 -94 -28 -367 -17 -556
l9 -158 38 -39 c64 -65 160 -74 229 -19 55 44 57 56 66 404 7 303 8 325 28
357 42 67 108 108 174 108 39 -1 63 -13 113 -59 64 -58 66 -71 75 -421 4 -200
11 -324 18 -337 45 -84 186 -117 259 -60 52 41 56 67 61 397 4 294 5 307 28
351 43 87 130 138 209 123 48 -9 131 -85 145 -132 7 -22 14 -167 17 -347 5
-303 5 -311 28 -346 34 -52 102 -83 163 -75 91 12 134 64 144 174 10 119 9
550 -2 621 -46 280 -382 493 -651 411 -41 -12 -113 -42 -160 -67 l-86 -46 -84
46 c-46 25 -108 52 -137 61 -67 19 -185 28 -237 16z"/>
<path d="M6475 1218 c-37 -13 -72 -44 -93 -83 -15 -27 -17 -82 -17 -515 0
-535 -1 -526 63 -563 83 -48 183 -41 227 18 14 17 29 56 35 85 12 64 13 866 1
929 -21 107 -116 164 -216 129z"/>
<path d="M7787 1209 c-20 -11 -49 -38 -65 -61 l-27 -42 -3 -430 c-4 -499 -1
-543 36 -588 81 -96 223 -83 287 26 l26 45 -3 463 -3 463 -25 50 c-45 90 -135
120 -223 74z"/>
<path d="M2635 1190 c-179 -10 -261 -43 -361 -147 -99 -102 -157 -261 -156
-428 0 -186 51 -316 171 -436 81 -81 131 -107 251 -132 73 -15 909 -14 998 1
177 31 310 150 385 344 30 80 32 89 31 228 0 131 -3 151 -26 212 -57 151 -152
260 -276 319 -64 31 -74 33 -237 40 -201 9 -597 9 -780 -1z m905 -378 c38 -39
51 -62 65 -116 16 -59 17 -75 6 -134 -17 -90 -35 -126 -84 -162 l-41 -30 -455
0 -454 0 -43 45 c-97 100 -97 284 -1 399 18 23 36 31 73 37 27 3 238 7 468 8
l420 1 46 -48z"/>
<path d="M8805 1189 c-137 -10 -226 -50 -313 -138 -63 -64 -108 -141 -141
-238 -17 -51 -21 -87 -21 -198 0 -111 4 -147 21 -198 54 -162 146 -274 274
-333 96 -44 186 -53 530 -53 293 0 374 7 412 35 112 84 99 229 -27 294 -31 16
-72 18 -395 21 -415 5 -398 1 -443 97 -23 48 -27 71 -27 142 0 101 25 164 83
208 l36 27 460 0 c254 0 473 -3 487 -7 15 -4 30 -16 34 -25 3 -10 10 -170 15
-355 7 -298 10 -341 26 -375 26 -52 73 -77 141 -75 88 2 145 47 163 128 11 44
11 547 2 791 l-7 162 -30 31 c-16 18 -48 41 -69 52 -38 19 -54 20 -585 17
-300 -2 -582 -7 -626 -10z"/>
</g>
</svg>
