<?xml version="1.0" standalone="no"?>
<!DOCTYPE svg PUBLIC "-//W3C//DTD SVG 20010904//EN"
 "http://www.w3.org/TR/2001/REC-SVG-20010904/DTD/svg10.dtd">
<svg version="1.0" xmlns="http://www.w3.org/2000/svg"
 width="318.000000pt" height="312.000000pt" viewBox="0 0 318.000000 312.000000"
 preserveAspectRatio="xMidYMid meet">

<g transform="translate(0.000000,312.000000) scale(0.100000,-0.100000)"
fill="#000000" stroke="none">
<path d="M439 2743 c-197 -196 -356 -360 -353 -365 3 -4 518 -8 1145 -8 l1139
0 355 356 c195 196 352 360 349 365 -3 5 -477 9 -1142 9 l-1136 0 -357 -357z"/>
<path d="M2762 2658 l-362 -363 -1183 -5 -1182 -5 -3 -1124 c-2 -893 0 -1126
10 -1133 15 -9 329 -11 352 -2 14 6 16 97 16 935 0 908 0 929 19 939 13 7 340
10 988 10 l968 0 260 260 c143 143 264 259 270 257 7 -3 12 -317 15 -912 3
-617 8 -909 15 -912 6 -2 56 41 110 94 l100 98 0 1110 c0 978 -2 1110 -15
1113 -9 1 -170 -153 -378 -360z"/>
<path d="M2629 2053 c-115 -115 -222 -213 -237 -220 -20 -9 -254 -12 -958 -13
l-932 0 -6 -22 c-10 -39 -7 -318 4 -339 10 -19 31 -19 943 -19 513 0 938 4
944 8 24 15 463 453 473 472 11 20 14 297 4 324 -3 9 -11 16 -16 16 -5 0 -104
-93 -219 -207z"/>
<path d="M2622 1577 l-222 -223 2 -639 c2 -509 6 -639 16 -643 7 -2 53 37 102
88 l90 92 0 466 0 466 130 131 130 132 0 161 c0 153 -4 192 -19 192 -4 0 -107
-100 -229 -223z"/>
<path d="M525 1353 c-11 -3 -23 -10 -27 -17 -4 -6 -7 -297 -8 -648 0 -569 1
-638 16 -652 13 -13 44 -16 189 -16 162 0 175 1 185 19 6 13 10 236 10 655 0
564 -2 636 -16 650 -13 13 -42 16 -172 15 -86 -1 -166 -4 -177 -6z"/>
<path d="M1230 1350 c-13 -8 -15 -67 -18 -417 -1 -224 0 -423 3 -441 l6 -32
192 2 192 3 3 434 c1 312 -1 438 -9 447 -9 11 -50 14 -183 14 -94 0 -178 -5
-186 -10z"/>
<path d="M1968 1349 c-17 -9 -18 -52 -18 -663 0 -587 2 -654 16 -660 20 -8
338 -8 358 0 14 6 16 73 16 658 0 494 -3 655 -12 664 -15 15 -335 16 -360 1z"/>
<path d="M2807 1276 c-20 -19 -59 -60 -87 -91 l-50 -55 2 -392 c2 -295 6 -392
15 -395 16 -6 171 150 178 179 11 46 1 781 -11 785 -6 2 -28 -12 -47 -31z"/>
</g>
</svg>
