<?xml version="1.0" standalone="no"?>
<!DOCTYPE svg PUBLIC "-//W3C//DTD SVG 20010904//EN"
 "http://www.w3.org/TR/2001/REC-SVG-20010904/DTD/svg10.dtd">
<svg version="1.0" xmlns="http://www.w3.org/2000/svg"
 width="1016.000000pt" height="177.000000pt" viewBox="0 0 1016.000000 177.000000"
 preserveAspectRatio="xMidYMid meet">

<g transform="translate(0.000000,177.000000) scale(0.100000,-0.100000)"
fill="#000000" stroke="none">
<path d="M6485 1741 c-109 -28 -175 -119 -147 -201 29 -83 103 -132 198 -133
75 0 118 19 164 70 37 42 40 50 40 104 0 47 -5 63 -26 89 -49 58 -154 91 -229
71z"/>
<path d="M7815 1741 c-48 -12 -91 -38 -119 -71 -21 -25 -26 -42 -26 -85 0
-137 160 -220 302 -157 61 27 108 96 108 157 0 80 -80 148 -185 159 -27 3 -63
1 -80 -3z"/>
<path d="M4392 1587 c-49 -15 -98 -75 -111 -136 -13 -62 -15 -1192 -2 -1260
11 -56 37 -90 92 -121 l44 -25 600 0 c639 0 668 2 772 50 62 28 159 117 203
185 17 26 44 87 61 136 58 166 41 369 -44 528 -37 70 -124 162 -188 199 -102
59 -129 62 -539 62 l-375 0 -50 -25 c-116 -58 -125 -213 -16 -288 23 -15 67
-18 403 -22 432 -6 409 -1 462 -102 52 -103 44 -241 -20 -325 -48 -63 -46 -63
-549 -63 -454 0 -486 2 -507 34 -4 6 -8 243 -8 526 0 478 -2 518 -19 555 -22
49 -48 73 -98 91 -44 15 -66 16 -111 1z"/>
<path d="M7140 1583 c-37 -15 -80 -58 -95 -96 -14 -37 -15 -120 -13 -709 3
-657 3 -667 24 -694 35 -48 100 -75 163 -70 66 6 99 28 129 87 l22 44 -2 666
-3 665 -28 43 c-16 25 -43 49 -62 57 -34 14 -106 18 -135 7z"/>
<path d="M422 1230 c-77 -23 -185 -81 -231 -123 -54 -51 -111 -135 -138 -200
-34 -83 -47 -274 -38 -557 6 -204 7 -217 30 -251 69 -106 235 -100 292 11 16
31 18 71 23 355 5 312 6 321 28 357 51 82 133 122 209 103 40 -10 101 -62 126
-109 21 -39 22 -55 27 -362 5 -320 5 -321 30 -356 36 -53 74 -72 147 -73 70 0
104 19 138 76 19 32 20 57 25 349 l5 315 29 52 c67 122 201 147 292 56 67 -66
68 -73 74 -429 l5 -321 27 -35 c36 -47 102 -73 163 -65 56 8 88 29 117 76 22
35 23 43 26 359 2 211 -1 343 -8 378 -56 269 -376 469 -640 400 -63 -16 -161
-61 -207 -94 -40 -29 -56 -28 -106 6 -140 94 -302 124 -445 82z"/>
<path d="M6453 1215 c-27 -16 -49 -40 -62 -68 -20 -42 -21 -57 -21 -516 0
-532 -2 -520 73 -569 33 -22 52 -27 103 -27 75 0 108 20 142 85 22 44 22 47
22 514 0 457 -1 471 -21 513 -44 91 -148 121 -236 68z"/>
<path d="M7805 1226 c-39 -17 -70 -52 -90 -98 -13 -32 -15 -105 -15 -497 0
-301 4 -469 11 -488 49 -130 238 -151 307 -34 l27 46 3 442 c2 306 0 460 -8
498 -12 60 -45 107 -91 130 -35 18 -104 19 -144 1z"/>
<path d="M2600 1201 c-146 -12 -222 -48 -321 -152 -56 -59 -99 -139 -130 -239
-35 -113 -33 -275 5 -385 35 -103 51 -133 112 -204 97 -115 183 -155 366 -172
149 -14 869 -6 942 10 79 18 152 56 212 113 75 71 119 142 156 252 40 122 42
267 5 394 -53 178 -176 315 -326 363 -62 20 -91 22 -496 24 -236 2 -473 0
-525 -4z m932 -356 c43 -29 85 -108 94 -177 8 -60 -12 -170 -40 -211 -12 -17
-37 -42 -56 -55 l-34 -23 -459 3 -459 3 -42 46 c-64 71 -85 193 -50 296 21 63
76 131 112 136 15 2 223 5 462 6 l435 1 37 -25z"/>
<path d="M8800 1199 c-153 -17 -257 -74 -344 -190 -49 -65 -62 -91 -98 -194
-18 -49 -22 -83 -22 -190 0 -120 2 -137 31 -218 73 -207 222 -335 415 -357
121 -14 704 -11 749 3 147 48 171 234 39 307 l-45 25 -367 5 c-350 5 -368 6
-395 26 -71 52 -104 204 -68 319 21 64 75 120 127 130 18 3 236 5 485 3 418
-3 454 -4 470 -21 16 -16 18 -49 23 -365 6 -384 6 -386 72 -434 26 -18 46 -23
93 -23 77 0 125 28 155 89 20 43 21 53 18 507 -3 458 -3 464 -25 499 -12 20
-41 47 -65 60 l-43 25 -565 1 c-311 1 -599 -2 -640 -7z"/>
</g>
</svg>
